<svg width="112" height="36" viewBox="0 0 112 36" fill="none" xmlns="http://www.w3.org/2000/svg">
<path fill-rule="evenodd" clip-rule="evenodd" d="M8.94764 0.0158069L10.4876 0L26.5106 0.00618672C26.7536 0.00866191 26.9046 0.0117004 27.0557 0.0158069C27.8501 0.0369023 28.6514 0.0834254 29.437 0.222992C30.2345 0.364416 30.9762 0.59579 31.7002 0.960543C32.4118 1.31843 33.0637 1.78613 33.6284 2.34507C34.1932 2.90266 34.6663 3.54655 35.0283 4.25058C35.3979 4.96703 35.6313 5.70025 35.7744 6.48865C35.9156 7.26524 35.9626 8.05736 35.9839 8.84267C35.994 9.20303 35.9984 9.56346 36.0002 9.92444L36.0024 10.5662L36.0028 24.7887C36.0028 25.2167 36.0028 25.6447 36.0002 26.0734C35.9984 26.4337 35.994 26.7942 35.9839 27.1545C35.9626 27.9392 35.9156 28.7319 35.7744 29.5079C35.6313 30.2963 35.3979 31.0302 35.0283 31.7466C34.6663 32.45 34.1932 33.0939 33.6284 33.6522C33.0637 34.2104 32.4118 34.6788 31.7002 35.0366C30.9762 35.4014 30.2345 35.6328 29.437 35.7742C28.6514 35.9138 27.8501 35.9603 27.0557 35.9814L24.6626 36L9.4923 35.991C9.24933 35.9885 9.09852 35.9855 8.94764 35.9814C8.15327 35.9603 7.35199 35.9138 6.5664 35.7742C5.76894 35.6328 5.02728 35.4014 4.30317 35.0366C3.59099 34.6788 2.93968 34.2104 2.37495 33.6522C1.81026 33.0939 1.33711 32.45 0.974437 31.7466C0.605522 31.0302 0.372065 30.2963 0.228391 29.5079C0.0871932 28.7319 0.040784 27.9392 0.0194636 27.1545C0.00939408 26.7942 0.00500662 26.4337 0.00315023 26.0734L0.000394851 25.4308L0 11.2085C0 10.7805 -1.36216e-08 10.3519 0.00315023 9.92444C0.00500662 9.56346 0.00939408 9.20303 0.0194636 8.84267C0.040784 8.05736 0.0871932 7.26524 0.228391 6.48865C0.372065 5.70025 0.605522 4.96703 0.974437 4.25058C1.33711 3.54655 1.81026 2.90266 2.37495 2.34507C2.93968 1.78613 3.59099 1.31843 4.30317 0.960543C5.02728 0.59579 5.76894 0.364416 6.5664 0.222992C7.35199 0.0834254 8.15327 0.0369023 8.94764 0.0158069Z" fill="#1A1A1A" fill-opacity="0.01"/>
<mask id="mask0_302_328" style="mask-type:alpha" maskUnits="userSpaceOnUse" x="0" y="0" width="37" height="36">
<path fill-rule="evenodd" clip-rule="evenodd" d="M8.94764 0.0158069L10.4876 0L26.5106 0.00618672C26.7536 0.00866191 26.9046 0.0117004 27.0557 0.0158069C27.8501 0.0369023 28.6514 0.0834254 29.437 0.222992C30.2345 0.364416 30.9762 0.59579 31.7002 0.960543C32.4118 1.31843 33.0637 1.78613 33.6284 2.34507C34.1932 2.90266 34.6663 3.54655 35.0283 4.25058C35.3979 4.96703 35.6313 5.70025 35.7744 6.48865C35.9156 7.26524 35.9626 8.05736 35.9839 8.84267C35.994 9.20303 35.9984 9.56346 36.0002 9.92444L36.0024 10.5662L36.0028 24.7887C36.0028 25.2167 36.0028 25.6447 36.0002 26.0734C35.9984 26.4337 35.994 26.7942 35.9839 27.1545C35.9626 27.9392 35.9156 28.7319 35.7744 29.5079C35.6313 30.2963 35.3979 31.0302 35.0283 31.7466C34.6663 32.45 34.1932 33.0939 33.6284 33.6522C33.0637 34.2104 32.4118 34.6788 31.7002 35.0366C30.9762 35.4014 30.2345 35.6328 29.437 35.7742C28.6514 35.9138 27.8501 35.9603 27.0557 35.9814L24.6626 36L9.4923 35.991C9.24933 35.9885 9.09852 35.9855 8.94764 35.9814C8.15327 35.9603 7.35199 35.9138 6.5664 35.7742C5.76894 35.6328 5.02728 35.4014 4.30317 35.0366C3.59099 34.6788 2.93968 34.2104 2.37495 33.6522C1.81026 33.0939 1.33711 32.45 0.974437 31.7466C0.605522 31.0302 0.372065 30.2963 0.228391 29.5079C0.0871932 28.7319 0.040784 27.9392 0.0194636 27.1545C0.00939408 26.7942 0.00500662 26.4337 0.00315023 26.0734L0.000394851 25.4308L0 11.2085C0 10.7805 -1.36216e-08 10.3519 0.00315023 9.92444C0.00500662 9.56346 0.00939408 9.20303 0.0194636 8.84267C0.040784 8.05736 0.0871932 7.26524 0.228391 6.48865C0.372065 5.70025 0.605522 4.96703 0.974437 4.25058C1.33711 3.54655 1.81026 2.90266 2.37495 2.34507C2.93968 1.78613 3.59099 1.31843 4.30317 0.960543C5.02728 0.59579 5.76894 0.364416 6.5664 0.222992C7.35199 0.0834254 8.15327 0.0369023 8.94764 0.0158069Z" fill="white"/>
</mask>
<g mask="url(#mask0_302_328)">
<path d="M36.0028 -0.00244141H0V36.0003H36.0028V-0.00244141Z" fill="#19AA1E"/>
<path fill-rule="evenodd" clip-rule="evenodd" d="M0 -0.00244141H36.0028V11.811L0 6.18553V-0.00244141Z" fill="#FFB919"/>
<path fill-rule="evenodd" clip-rule="evenodd" d="M0 32.0624L36.0028 26.437V36.0002H0V32.0624Z" fill="#82D714"/>
<path fill-rule="evenodd" clip-rule="evenodd" d="M0 5.47363L12.567 7.43719C14.1314 6.44694 15.9925 5.90403 18.0014 5.90403C20.7837 5.90403 23.2827 6.94558 25.1023 8.77452C25.3319 9.00533 25.5485 9.24667 25.7516 9.49728L36.0028 11.099V12.5224L26.7925 11.0834C27.4767 12.3965 27.8459 13.8595 27.8459 15.3525C27.8459 17.2814 27.4144 19.2046 26.5226 21.1354L26.4954 21.1939L26.1167 22.0055H25.221C23.3715 22.0055 22.1447 22.5588 21.3426 23.5393C20.7128 24.3091 20.3486 25.3469 20.2261 26.4792L20.2224 26.5146L20.2044 26.6955L20.1968 26.7742L20.1822 26.9282C20.1354 27.4337 20.104 27.8625 20.0881 28.2118L36.0028 25.7251V27.1485L0 32.774V31.3506L15.9326 28.8611L15.9256 28.5415L15.9235 28.4514L15.9222 28.4052L15.9197 28.3339C15.9053 27.9464 15.8698 27.4497 15.813 26.8477L15.8021 26.7335L15.7826 26.5359C15.6682 25.3976 15.3095 24.3466 14.6814 23.5654C13.8877 22.5782 12.6721 22.0168 10.8375 22.0057L10.7818 22.0055H9.88608L9.50732 21.1939C8.59706 19.2434 8.15687 17.3009 8.15687 15.3525C8.15687 12.9024 9.15089 10.5331 10.9005 8.77452C10.951 8.72378 11.002 8.6736 11.0535 8.6241L0 6.89698V5.47363Z" fill="white"/>
<path fill-rule="evenodd" clip-rule="evenodd" d="M18.0016 7.31055C23.0279 7.31055 26.4398 11.1793 26.4398 15.3527C26.4398 17.0281 26.0742 18.7716 25.2212 20.5993C20.2754 20.5993 19.0545 24.1413 18.8237 26.3699L18.8089 26.5184C18.7307 27.3138 18.6855 27.952 18.6731 28.4331L17.3335 28.6424L17.3332 28.5991C17.3281 28.0948 17.2804 27.3873 17.1902 26.4767L17.1862 26.437C16.973 24.2132 15.7778 20.5993 10.782 20.5993C9.92902 18.7716 9.56348 17.0281 9.56348 15.3527C9.56348 11.1793 12.9753 7.31055 18.0016 7.31055Z" fill="#0073FA"/>
</g>
<path fill-rule="evenodd" clip-rule="evenodd" d="M52.6537 8.7168C48.2659 8.7168 44.975 11.3889 45.0031 16.0299H49.0815C49.0253 14.1735 50.2066 12.3733 52.6537 12.3733C54.5101 12.3733 55.6914 13.6109 55.6914 15.186C55.6914 16.8174 54.3976 17.7175 52.3162 18.7301C49.5878 20.052 47.9565 20.6708 45.0031 21.6553V26.9994H60.1918V23.3429H50.516C51.9258 22.7552 53.2984 22.1099 54.5382 21.5147C57.8291 19.9395 59.7699 18.1675 59.7699 14.9892C59.7699 11.1639 56.9009 8.7168 52.6537 8.7168ZM66.3797 12.6546H74.2553V8.99807H62.4419V26.9994H66.3797V12.6546ZM80.4433 8.99807H76.5055V26.9994H80.4152L87.7564 15.4954V26.9994H91.6942V8.99807H87.7564L80.4433 20.5021V8.99807ZM111.468 20.2489H107.389C106.77 22.246 104.886 23.6242 102.664 23.6242C99.4292 23.6242 97.3196 20.8396 97.3196 17.9988C97.3196 15.1579 99.3729 12.3733 102.776 12.3733C105.026 12.3733 106.77 13.7516 107.389 15.7486H111.468C110.877 11.7264 107.699 8.7168 102.664 8.7168C97.0946 8.7168 93.3818 12.6265 93.3818 17.9988C93.3818 23.371 97.0946 27.2807 102.664 27.2807C107.699 27.2807 110.877 24.3274 111.468 20.2489Z" fill="#1A1A1A"/>
</svg>
