<svg width="170" height="51" viewBox="0 0 170 51" fill="none" xmlns="http://www.w3.org/2000/svg">
<path d="M69.5986 25.4481L67.9854 21.7977H61.4225L59.8094 25.4481H57.5149L64.3783 10.394H65.0196L71.9031 25.4481H69.5986ZM62.154 20.1644H67.264L64.709 14.3986L62.154 20.1644Z" fill="#D53A2F"/>
<path d="M78.2896 25.4481V12.2635H73.881V10.4236H84.7422V12.2635H80.3737V25.4481H78.2896Z" fill="#D53A2F"/>
<path d="M87.7922 25.4481V10.4236H96.359V12.2635H89.8663V16.8486H95.7678V18.5606H89.8663V23.6081H96.4692V25.4481H87.7922Z" fill="#D53A2F"/>
<path d="M100.421 25.7826C99.9066 25.7826 99.4591 25.6941 99.0783 25.517L99.0182 23.7361C99.1318 23.7951 99.3054 23.8476 99.5392 23.8935C99.7797 23.9328 99.9734 23.9525 100.12 23.9525C100.575 23.9525 100.959 23.7656 101.273 23.3917C101.587 23.0112 101.774 22.516 101.834 21.906L102.886 10.4236H112.815V25.4481H110.751V12.2635H104.8L103.898 22.1027C103.791 23.2179 103.42 24.11 102.786 24.779C102.151 25.4481 101.363 25.7826 100.421 25.7826Z" fill="#D53A2F"/>
<path d="M117.258 10.4236H119.342V16.6616H121.616C123.16 16.6616 124.392 17.0552 125.314 17.8424C126.236 18.6295 126.696 19.6987 126.696 21.0499C126.696 22.4012 126.232 23.4737 125.304 24.2674C124.382 25.0545 123.143 25.4481 121.586 25.4481H117.258V10.4236ZM119.342 18.413V23.6869H121.506C122.502 23.6869 123.283 23.4507 123.851 22.9784C124.419 22.5062 124.703 21.8633 124.703 21.0499C124.703 20.2431 124.419 19.6036 123.851 19.1313C123.29 18.659 122.515 18.4196 121.526 18.413H119.342Z" fill="#D53A2F"/>
<path d="M129.766 25.4481V10.4236H138.333V12.2635H131.841V16.8486H137.742V18.5606H131.841V23.6081H138.443V25.4481H129.766Z" fill="#D53A2F"/>
<path d="M68.139 30.576L69.9292 40.5989H68.5398L67.3041 33.7901V33.7573L67.2974 33.7835L64.0778 40.6054L63.7772 40.5989L63.4699 40.6054L60.2503 33.7901V33.8032L59.0078 40.5989H57.6251L59.4086 30.576H60.0966L63.6903 38.3096L63.7705 38.4736L63.8506 38.3096L67.451 30.576H68.139Z" fill="#D53A2F"/>
<path d="M75.5562 30.5825H78.5287V40.5989H77.1393V36.3286H76.0639L73.1515 40.5989H71.6285L74.6344 36.2565C73.8908 36.1209 73.3052 35.8214 72.8777 35.3578C72.4502 34.8899 72.2364 34.2843 72.2364 33.5408C72.2364 32.64 72.5414 31.9228 73.1515 31.3893C73.7616 30.8514 74.5632 30.5825 75.5562 30.5825ZM77.1393 35.2266V31.7567H75.583C74.9773 31.7567 74.4897 31.9141 74.1201 32.2289C73.7505 32.5438 73.5657 32.9724 73.5657 33.5146C73.5657 34.0525 73.7483 34.4723 74.1134 34.774C74.4786 35.0714 74.964 35.2223 75.5696 35.2266H77.1393Z" fill="#D53A2F"/>
<path d="M81.4839 40.5989V30.5825H87.0147V31.7829H82.8666V40.5989H81.4839Z" fill="#D53A2F"/>
<path d="M91.7466 35.3841L96.7698 40.5989H94.993L90.5109 35.9285H90.4307V40.5989H89.048V30.5825H90.4307V34.9971H90.4975L94.6456 30.5825H96.2889L91.7466 35.3841Z" fill="#D53A2F"/>
<path d="M107.393 30.3398H107.774V40.5989H106.385L106.391 33.4031L99.1171 40.894H98.7363V30.5825H100.112V37.9226L107.393 30.3398Z" fill="#D53A2F"/>
<path d="M109.841 40.5989L113.321 35.4825L110.008 30.5825H111.658L114.129 34.2821L114.203 34.4789L114.283 34.2755L116.748 30.5825H118.351L115.038 35.4825L118.518 40.5989H116.861L114.263 36.7156L114.156 36.4598L114.042 36.7156L111.437 40.5989H109.841Z" fill="#D53A2F"/>
<path d="M131.37 40.8416C130.626 40.8416 129.916 40.7038 129.239 40.4283C128.566 40.1528 127.985 39.7811 127.495 39.3132C127.01 38.8409 126.623 38.2812 126.333 37.634C126.048 36.9824 125.906 36.298 125.906 35.5808C125.906 34.8637 126.048 34.1793 126.333 33.5277C126.623 32.8761 127.01 32.3164 127.495 31.8485C127.985 31.3806 128.566 31.0089 129.239 30.7334C129.916 30.4579 130.626 30.3201 131.37 30.3201C132.118 30.3201 132.828 30.4579 133.5 30.7334C134.177 31.0089 134.761 31.3806 135.251 31.8485C135.74 32.3164 136.128 32.8761 136.413 33.5277C136.702 34.1793 136.847 34.8637 136.847 35.5808C136.847 36.298 136.702 36.9824 136.413 37.634C136.128 38.2855 135.74 38.8453 135.251 39.3132C134.761 39.7811 134.177 40.1528 133.5 40.4283C132.828 40.7038 132.118 40.8416 131.37 40.8416ZM129.78 39.2738C130.283 39.4837 130.813 39.5887 131.37 39.5887C131.926 39.5887 132.456 39.4837 132.959 39.2738C133.467 39.0596 133.903 38.7753 134.269 38.4211C134.634 38.0625 134.923 37.6362 135.137 37.142C135.355 36.6479 135.464 36.1275 135.464 35.5808C135.464 35.0342 135.355 34.5138 135.137 34.0197C134.923 33.5255 134.634 33.1014 134.269 32.7471C133.903 32.3886 133.467 32.1043 132.959 31.8944C132.456 31.6801 131.926 31.573 131.37 31.573C130.813 31.573 130.283 31.6801 129.78 31.8944C129.277 32.1043 128.842 32.3886 128.477 32.7471C128.117 33.1014 127.827 33.5255 127.609 34.0197C127.395 34.5138 127.288 35.0342 127.288 35.5808C127.288 36.1275 127.395 36.6479 127.609 37.142C127.827 37.6362 128.117 38.0625 128.477 38.4211C128.842 38.7753 129.277 39.0596 129.78 39.2738Z" fill="#D53A2F"/>
<path d="M141.986 35.3841L147.01 40.5989H145.233L140.751 35.9285H140.67V40.5989H139.288V30.5825H140.67V34.9971H140.737L144.885 30.5825H146.529L141.986 35.3841Z" fill="#D53A2F"/>
<path d="M153.926 40.8416C153.182 40.8416 152.472 40.7038 151.795 40.4283C151.123 40.1528 150.541 39.7811 150.052 39.3132C149.566 38.8409 149.179 38.2812 148.889 37.634C148.604 36.9824 148.462 36.298 148.462 35.5808C148.462 34.8637 148.604 34.1793 148.889 33.5277C149.179 32.8761 149.566 32.3164 150.052 31.8485C150.541 31.3806 151.123 31.0089 151.795 30.7334C152.472 30.4579 153.182 30.3201 153.926 30.3201C154.674 30.3201 155.384 30.4579 156.057 30.7334C156.734 31.0089 157.317 31.3806 157.807 31.8485C158.297 32.3164 158.684 32.8761 158.969 33.5277C159.258 34.1793 159.403 34.8637 159.403 35.5808C159.403 36.298 159.258 36.9824 158.969 37.634C158.684 38.2855 158.297 38.8453 157.807 39.3132C157.317 39.7811 156.734 40.1528 156.057 40.4283C155.384 40.7038 154.674 40.8416 153.926 40.8416ZM152.336 39.2738C152.839 39.4837 153.369 39.5887 153.926 39.5887C154.482 39.5887 155.012 39.4837 155.516 39.2738C156.023 39.0596 156.46 38.7753 156.825 38.4211C157.19 38.0625 157.479 37.6362 157.693 37.142C157.911 36.6479 158.02 36.1275 158.02 35.5808C158.02 35.0342 157.911 34.5138 157.693 34.0197C157.479 33.5255 157.19 33.1014 156.825 32.7471C156.46 32.3886 156.023 32.1043 155.516 31.8944C155.012 31.6801 154.482 31.573 153.926 31.573C153.369 31.573 152.839 31.6801 152.336 31.8944C151.833 32.1043 151.399 32.3886 151.033 32.7471C150.673 33.1014 150.383 33.5255 150.165 34.0197C149.951 34.5138 149.844 35.0342 149.844 35.5808C149.844 36.1275 149.951 36.6479 150.165 37.142C150.383 37.6362 150.673 38.0625 151.033 38.4211C151.399 38.7753 151.833 39.0596 152.336 39.2738Z" fill="#D53A2F"/>
<path d="M161.844 40.5989V30.5825H163.233V34.9774H168.611V30.5825H170V40.5989H168.611V36.2106H163.233V40.5989H161.844Z" fill="#D53A2F"/>
<mask id="mask0_626_878" style="mask-type:alpha" maskUnits="userSpaceOnUse" x="0" y="0" width="51" height="51">
<path d="M0 0.894043H50.8982V50.894H40C17.9086 50.894 0 32.9854 0 10.894V0.894043Z" fill="#D94136"/>
</mask>
<g mask="url(#mask0_626_878)">
<path d="M0 0.894043H50.8982V50.894H40C17.9086 50.894 0 32.9854 0 10.894V0.894043Z" fill="#D53A2F"/>
<path d="M3.05396 41.894V39.782L13.7863 28.8394C15.799 26.8011 17.2328 25.0914 18.0875 23.7101C18.9422 22.3289 19.3696 20.8538 19.3696 19.2848C19.3696 17.6622 18.8871 16.395 17.9221 15.4831C16.9708 14.5712 15.5509 14.1153 13.6622 14.1153C12.063 14.1153 10.5259 14.417 9.05083 15.0205C7.57573 15.6239 6.26607 16.3548 5.12184 17.213V13.0291C7.96174 11.2724 10.9119 10.394 13.9724 10.394C16.9226 10.394 19.28 11.1584 21.0446 12.6871C22.8092 14.2159 23.6915 16.3078 23.6915 18.963C23.6915 20.076 23.5467 21.122 23.2572 22.1009C22.9677 23.0665 22.499 24.032 21.851 24.9975C21.2031 25.9496 20.569 26.7743 19.9486 27.4716C19.342 28.1555 18.508 29.0406 17.4464 30.1268L9.62983 38.1728L11.8838 38.032H24.5186V41.894H3.05396Z" fill="white"/>
<path d="M24.8528 41.894V39.782L35.5851 28.8394C37.5979 26.8011 39.0316 25.0914 39.8863 23.7101C40.741 22.3289 41.1684 20.8538 41.1684 19.2848C41.1684 17.6622 40.6859 16.395 39.7209 15.4831C38.7697 14.5712 37.3497 14.1153 35.461 14.1153C33.8619 14.1153 32.3247 14.417 30.8497 15.0205C29.3746 15.6239 28.0649 16.3548 26.9207 17.213V13.0291C29.7606 11.2724 32.7108 10.394 35.7712 10.394C38.7214 10.394 41.0788 11.1584 42.8434 12.6871C44.608 14.2159 45.4903 16.3078 45.4903 18.963C45.4903 20.076 45.3455 21.122 45.056 22.1009C44.7665 23.0665 44.2978 24.032 43.6499 24.9975C43.0019 25.9496 42.3678 26.7743 41.7474 27.4716C41.1408 28.1555 40.3068 29.0406 39.2453 30.1268L31.4287 38.1728L33.6827 38.032H46.3174V41.894H24.8528Z" fill="white"/>
<path d="M-0.697978 17.4716C-0.689579 16.9811 -0.107976 16.7243 0.272469 17.0431L2.43049 18.8513C10.2837 25.4317 19.566 30.2176 29.5017 32.8329V32.8329C29.7482 32.8977 29.894 33.1515 29.8214 33.3918V33.3918C26.9667 42.8297 26.4809 52.8278 28.4056 62.5281L29.135 66.2042C29.2265 66.6654 28.7328 67.0189 28.3152 66.7912L-0.196114 51.2428C-0.853991 50.884 -1.25836 50.196 -1.24571 49.4569L-0.697978 17.4716Z" fill="#BDE0F2"/>
<ellipse cx="13.997" cy="37.6445" rx="4.32635" ry="4.25" fill="#D53A2F"/>
</g>
</svg>
