<svg width="305" height="86" viewBox="0 0 305 86" fill="none" xmlns="http://www.w3.org/2000/svg">
<path fill-rule="evenodd" clip-rule="evenodd" d="M1.03125 25.7278H292.955V77.297H1.03125V25.7278ZM0.03125 24.7278H1.03125H292.955H293.955V25.7278V29.6935H303.497H304.097V30.2935V78.6449V78.95L303.851 79.1298L300.047 81.9024L296.243 85.0223L296.077 85.1584H295.863H14.8225H14.6099L14.4448 85.0246L10.1505 81.5461L10.1476 81.5438L6.33045 78.4131L6.4257 78.297H1.03125H0.03125V77.297V25.7278V24.7278ZM8.08114 78.297L10.9058 80.6136L10.9086 80.616L15.035 83.9584H295.648L299.299 80.9638L299.313 80.953L299.327 80.9429L302.897 78.3398V30.8935H293.955V77.297V78.297H292.955H8.08114Z" fill="#006D33"/>
<rect x="0.630273" y="0.6" width="292.723" height="3.01442" stroke="#006D33" stroke-width="1.2"/>
<rect x="5.4" y="4.28018" width="46.6428" height="4.8" transform="rotate(90 5.4 4.28018)" stroke="#006D33" stroke-width="1.2"/>
<rect x="36.4" y="4.28018" width="46.6428" height="3.8" transform="rotate(90 36.4 4.28018)" stroke="#006D33" stroke-width="1.2"/>
<rect x="73.4" y="4.28018" width="46.6428" height="4.8" transform="rotate(90 73.4 4.28018)" stroke="#006D33" stroke-width="1.2"/>
<rect x="109.4" y="4.28018" width="46.6428" height="4.8" transform="rotate(90 109.4 4.28018)" stroke="#006D33" stroke-width="1.2"/>
<rect x="145.4" y="4.28018" width="46.6428" height="4.8" transform="rotate(90 145.4 4.28018)" stroke="#006D33" stroke-width="1.2"/>
<rect x="181.4" y="4.28018" width="46.6428" height="3.8" transform="rotate(90 181.4 4.28018)" stroke="#006D33" stroke-width="1.2"/>
<rect x="218.4" y="4.28018" width="46.6428" height="4.8" transform="rotate(90 218.4 4.28018)" stroke="#006D33" stroke-width="1.2"/>
<rect x="254.4" y="4.28018" width="46.6428" height="4.8" transform="rotate(90 254.4 4.28018)" stroke="#006D33" stroke-width="1.2"/>
<rect x="293.4" y="4.28018" width="46.6428" height="4.8" transform="rotate(90 293.4 4.28018)" stroke="#006D33" stroke-width="1.2"/>
</svg>
