<svg width="616" height="603" viewBox="0 0 616 603" fill="none" xmlns="http://www.w3.org/2000/svg">
<g opacity="0.03">
<path d="M546.029 197.736V148.351L307.428 0.196533L64.2387 148.351V311.321L0 316.26L156.008 415.028L321.194 311.321H256.955V266.874L417.552 163.166L307.428 94.0276L142.243 197.736V311.321H178.95V222.428L307.428 143.412L344.136 163.166L211.071 242.182V336.014L156.008 365.644L105.535 331.074V173.044L307.428 49.5813L546.029 197.736Z" fill="#006D33"/>
<path d="M59.9756 454.277V404.886L300.92 548.122L504.796 429.582V266.589L453.827 232.015L398.224 266.589V355.493L268.485 434.52L300.92 454.277L430.659 380.19V286.345H467.727V404.886L300.92 508.609L194.348 434.52L356.523 330.798V286.345H287.019L453.827 182.623L616 286.345H551.132V454.277L300.92 602.452L59.9756 454.277Z" fill="#006D33"/>
</g>
</svg>
