<svg width="140" height="133" viewBox="0 0 140 133" fill="none" xmlns="http://www.w3.org/2000/svg">
<path d="M37.1963 45.5V63.5H38.2056V46.5L71.514 27.5L85.1402 34.5L52.3364 55V74L37.1963 83L21.5514 74V35.5L71.514 7L119.963 34.5V32L71.514 5L19.5327 34.5V72.5H16L19.5327 74.5L37.1963 85L54.8598 74.5L58.3925 72.5H54.8598V55L87.6636 34.5L71.514 " stroke="#006D33" stroke-width="8" stroke-miterlimit="16"/>
<path d="M102.804 87V69H101.794V86L68.486 105L54.8598 98L87.6636 77.5V58.5L102.804 49.5L118.449 58.5V97L68.486 125.5L20.0374 98V100.5L68.486 127.5L120.467 98V60H124L120.467 58L102.804 47.5L85.1402 58L81.6075 60H85.1402V77.5L52.3364 98L68.486 106.5L102.804 87Z" stroke="#EF4500" stroke-width="8" stroke-miterlimit="16"/>
</svg>
